<svg width="228" height="228" viewBox="0 0 228 228" fill="none" xmlns="http://www.w3.org/2000/svg">
<path d="M3 50V178L115 226V98" stroke="#B7B7B7" stroke-width="2"/>
<path d="M115 98L3 50L115 2L227 50" stroke="#B7B7B7" stroke-width="2"/>
<path d="M115 226L227 178V50L115 98" stroke="#B7B7B7" stroke-width="2"/>
<path d="M39.4 102.8L76.7333 117.2L43.1333 126.8C50.2889 128.4 73 134 70.2 150.8C67.1299 169.221 32.8666 163.6 29.1333 142.8" stroke="#B7B7B7" stroke-width="2"/>
<path d="M146.733 174.081V106.881C152.333 104.747 165.773 101.121 174.733 103.681C185.933 106.881 193.4 113.281 194.333 125.281C195.267 137.281 187.8 154.881 174.733 162.881C164.28 169.281 151.711 173.014 146.733 174.081Z" stroke="#B7B7B7" stroke-width="2"/>
</svg>
