<svg width="300" height="349" viewBox="0 0 300 349" fill="none" xmlns="http://www.w3.org/2000/svg">
<path d="M38 111V239L150 287V159" stroke="#B7B7B7" stroke-width="2"/>
<path d="M150 159L38 111L150 63L262 111" stroke="#B7B7B7" stroke-width="2"/>
<path d="M150 287L262 239V111L150 159" stroke="#B7B7B7" stroke-width="2"/>
<path d="M74.4 163.8L111.733 178.2L78.1333 187.8C85.2889 189.4 108 195 105.2 211.8C102.13 230.221 67.8666 224.6 64.1333 203.8" stroke="#B7B7B7" stroke-width="2"/>
<path d="M181.733 235.081V167.881C187.333 165.747 200.773 162.121 209.733 164.681C220.933 167.881 228.4 174.281 229.333 186.281C230.267 198.281 222.8 215.881 209.733 223.881C199.28 230.281 186.711 234.014 181.733 235.081Z" stroke="#B7B7B7" stroke-width="2"/>
</svg>
