<svg width="448" height="349" viewBox="0 0 448 349" fill="none" xmlns="http://www.w3.org/2000/svg">
<path d="M143.521 227.5V112H276.021V227.5H143.521Z" stroke="#B7B7B7" stroke-width="2"/>
<path d="M159.521 209.5V130H257.521V209.5H159.521Z" stroke="#B7B7B7" stroke-width="2"/>
<path d="M177.021 193.5L187.521 146.5L198.521 193.5" stroke="#B7B7B7" stroke-width="2"/>
<path d="M180.521 176.5H194.521" stroke="#B7B7B7" stroke-width="2"/>
<path d="M213.521 149.5H236.521" stroke="#B7B7B7" stroke-width="2"/>
<path d="M225.521 150.5V190.5" stroke="#B7B7B7" stroke-width="2"/>
<path d="M236.521 189.5H215.021" stroke="#B7B7B7" stroke-width="2"/>
<path d="M175.02 112V58L151.02 44V21M151.02 21C153.52 20.5 160.02 20.5 161.02 13C162.011 5.56579 157.02 1 151.02 1C145.02 1 140.521 6 141.52 13.5C142.324 19.5294 148.02 20.5 151.02 21Z" stroke="#B7B7B7" stroke-width="2"/>
<path d="M253.16 111.5V85.5L272.52 70.5V47.5M272.52 47.5C275.02 47 281.52 47 282.52 39.5C283.511 32.0658 278.52 27.5 272.52 27.5C266.52 27.5 262.021 32.5 263.021 40C263.824 46.0294 269.52 47 272.52 47.5Z" stroke="#B7B7B7" stroke-width="2"/>
<path d="M198.16 112.5V89.5M198.16 89.5C200.66 89 207.16 89 208.16 81.5C209.151 74.0658 204.16 69.5 198.16 69.5C192.16 69.5 187.66 74.5 188.66 82C189.464 88.0294 195.16 89 198.16 89.5Z" stroke="#B7B7B7" stroke-width="2"/>
<path d="M235.16 112L235.16 70.5M235.16 70.5C237.66 70 244.16 70 245.16 62.5C246.151 55.0658 241.16 50.5 235.16 50.5C229.16 50.5 224.66 55.5 225.66 63C226.464 69.0294 232.16 70 235.16 70.5Z" stroke="#B7B7B7" stroke-width="2"/>
<path d="M276.521 130.139L303.021 130.139L315.021 103.5L349.021 103.5M349.021 103.5C349.521 106 349.521 112.5 357.021 113.5C364.455 114.491 369.021 109.5 369.021 103.5C369.021 97.5002 364.021 93.0004 356.521 94.0004C350.491 94.8042 349.521 100.5 349.021 103.5Z" stroke="#B7B7B7" stroke-width="2"/>
<path d="M276.521 198H319.521L366.021 216.221L400.021 216.221M400.021 216.221C400.521 218.721 400.521 225.221 408.021 226.221C415.455 227.212 420.021 222.221 420.021 216.221C420.021 210.221 415.021 205.721 407.521 206.721C401.491 207.525 400.521 213.221 400.021 216.221Z" stroke="#B7B7B7" stroke-width="2"/>
<path d="M276.521 157.779H347.021L392.521 113.139L426.521 113.139M426.521 113.139C427.021 115.639 427.021 122.139 434.521 123.139C441.955 124.13 446.521 119.139 446.521 113.139C446.521 107.139 441.521 102.64 434.021 103.64C427.991 104.443 427.021 110.139 426.521 113.139Z" stroke="#B7B7B7" stroke-width="2"/>
<path d="M276.521 179.139L310.521 179.139M310.521 179.139C311.021 181.639 311.021 188.139 318.521 189.139C325.955 190.13 330.521 185.139 330.521 179.139C330.521 173.139 325.521 168.64 318.021 169.64C311.991 170.443 311.021 176.139 310.521 179.139Z" stroke="#B7B7B7" stroke-width="2"/>
<path d="M144.527 212.486L118.027 212.493L106.021 228L72.0205 228.009M72.0205 228.009C71.5199 225.509 71.5182 219.009 64.018 218.011C56.5835 217.021 52.019 222.014 52.0205 228.014C52.022 234.014 57.0232 238.512 64.5229 237.51C70.5521 236.705 71.5213 231.009 72.0205 228.009Z" stroke="#B7B7B7" stroke-width="2"/>
<path d="M144.507 132.847L101.507 132.858L55.0027 114.649L21.0027 114.657M21.0027 114.657C20.5021 112.157 20.5004 105.657 13.0002 104.659C5.56573 103.67 1.0012 108.662 1.00272 114.662C1.00423 120.662 6.00537 125.161 13.5051 124.159C19.5343 123.354 20.5035 117.657 21.0027 114.657Z" stroke="#B7B7B7" stroke-width="2"/>
<path d="M144.521 184.847L97.0205 184.847L78.0205 207.5L22.5205 207.495M22.5205 207.495C22.0199 204.995 22.0182 198.495 14.518 197.497C7.08351 196.508 2.519 201.5 2.52051 207.5C2.52203 213.5 7.52316 217.999 15.0229 216.997C21.0521 216.191 22.0213 210.495 22.5205 207.495Z" stroke="#B7B7B7" stroke-width="2"/>
<path d="M144.515 163.486L67.0205 163.495M67.0205 163.495C66.5199 160.995 66.5182 154.495 59.018 153.497C51.5835 152.508 47.019 157.5 47.0205 163.5C47.022 169.5 52.0232 173.999 59.5229 172.997C65.5521 172.191 66.5213 166.495 67.0205 163.495Z" stroke="#B7B7B7" stroke-width="2"/>
<path d="M266.14 228L265.839 281.999L289.76 296.133L289.632 319.133M289.632 319.133C287.129 319.619 280.63 319.582 279.588 327.077C278.555 334.505 283.52 339.099 289.52 339.132C295.52 339.166 300.048 334.191 299.09 326.685C298.32 320.652 292.629 319.649 289.632 319.133Z" stroke="#B7B7B7" stroke-width="2"/>
<path d="M158.475 228.165L158.33 254.164L138.886 269.056L138.758 292.056M138.758 292.056C136.255 292.542 129.756 292.505 128.714 300C127.681 307.428 132.647 312.022 138.646 312.055C144.646 312.089 149.174 307.114 148.216 299.608C147.446 293.575 141.755 292.572 138.758 292.056Z" stroke="#B7B7B7" stroke-width="2"/>
<path d="M247.886 227.056L247.758 250.056M247.758 250.056C245.255 250.542 238.756 250.506 237.714 258C236.681 265.429 241.646 270.022 247.646 270.056C253.646 270.089 258.174 265.114 257.216 257.609C256.446 251.575 250.755 250.573 247.758 250.056Z" stroke="#B7B7B7" stroke-width="2"/>
<path d="M219.99 227.057L219.758 268.556M219.758 268.556C217.255 269.042 210.756 269.006 209.714 276.5C208.681 283.928 213.646 288.522 219.646 288.556C225.646 288.589 230.174 283.614 229.216 276.109C228.446 270.075 222.755 269.073 219.758 268.556Z" stroke="#B7B7B7" stroke-width="2"/>
<path d="M172.758 327.5L172.887 292.663L192.33 277.771L192.475 251.771L182.216 241.107L182.216 227.107M172.758 327.5C170.255 327.986 163.755 327.95 162.714 335.444C161.681 342.873 166.646 347.466 172.646 347.5C178.646 347.533 183.174 342.558 182.216 335.053C181.446 329.019 175.755 328.017 172.758 327.5Z" stroke="#B7B7B7" stroke-width="2"/>
<path d="M337.892 301.5L338.021 278.5L338.021 245.5L313.521 218L276.521 218M337.892 301.5C335.39 301.986 328.89 301.949 327.848 309.444C326.815 316.872 331.781 321.466 337.781 321.499C343.78 321.533 348.308 316.558 347.35 309.053C346.58 303.019 340.89 302.016 337.892 301.5Z" stroke="#B7B7B7" stroke-width="2"/>
<path d="M157.521 111L157.521 86.8591L121.521 66.157L91.5228 66.157M91.5228 66.157C91.0222 63.6573 91.0206 57.1573 83.5203 56.1592C76.0859 55.1699 71.5213 60.1621 71.5228 66.1621C71.5244 72.1621 76.5255 76.6607 84.0252 75.6588C90.0544 74.8534 91.0236 69.1573 91.5228 66.157Z" stroke="#B7B7B7" stroke-width="2"/>
</svg>
