<svg width="302" height="349" viewBox="0 0 302 349" fill="none" xmlns="http://www.w3.org/2000/svg">
<path d="M96.9688 216.489V125.982H186.19V216.489H96.9688Z" stroke="#B7B7B7" stroke-width="2"/>
<path d="M107.743 202.384V140.087H173.733V202.384H107.743Z" stroke="#B7B7B7" stroke-width="2"/>
<path d="M119.527 189.846L126.597 153.016L134.004 189.846" stroke="#B7B7B7" stroke-width="2"/>
<path d="M121.884 176.525H131.311" stroke="#B7B7B7" stroke-width="2"/>
<path d="M144.105 155.367H159.592" stroke="#B7B7B7" stroke-width="2"/>
<path d="M152.186 156.151V187.495" stroke="#B7B7B7" stroke-width="2"/>
<path d="M159.592 186.712H145.115" stroke="#B7B7B7" stroke-width="2"/>
<path d="M118.18 125.981V83.6662L102.019 72.6955V54.6723M102.019 54.6723C103.703 54.2805 108.079 54.2805 108.753 48.4034C109.42 42.5778 106.059 39 102.019 39C97.979 39 94.949 42.9181 95.6223 48.7952C96.1636 53.5199 99.999 54.2805 102.019 54.6723Z" stroke="#B7B7B7" stroke-width="2"/>
<path d="M170.797 125.59V105.216L183.834 93.4614V75.4382M183.834 75.4382C185.517 75.0464 189.894 75.0464 190.567 69.1693C191.235 63.3437 187.874 59.7659 183.833 59.7659C179.793 59.7659 176.763 63.684 177.437 69.5611C177.978 74.2858 181.813 75.0464 183.834 75.4382Z" stroke="#B7B7B7" stroke-width="2"/>
<path d="M133.761 126.373V108.35M133.761 108.35C135.445 107.958 139.822 107.958 140.495 102.081C141.162 96.2556 137.802 92.6777 133.761 92.6777C129.721 92.6777 126.691 96.5958 127.364 102.473C127.906 107.198 131.741 107.958 133.761 108.35Z" stroke="#B7B7B7" stroke-width="2"/>
<path d="M158.676 125.981L158.676 93.4614M158.676 93.4614C160.36 93.0696 164.737 93.0696 165.41 87.1925C166.077 81.3669 162.717 77.7891 158.676 77.7891C154.636 77.7891 151.606 81.7071 152.279 87.5843C152.821 92.309 156.656 93.0696 158.676 93.4614Z" stroke="#B7B7B7" stroke-width="2"/>
<path d="M186.528 140.196H204.372L212.452 119.321L235.347 119.321M235.347 119.321C235.684 121.28 235.684 126.373 240.734 127.157C245.74 127.934 248.814 124.023 248.814 119.321C248.814 114.619 245.448 111.093 240.397 111.877C236.337 112.506 235.684 116.97 235.347 119.321Z" stroke="#B7B7B7" stroke-width="2"/>
<path d="M186.527 193.373L215.482 193.373L246.794 207.651L269.688 207.651M269.688 207.651C270.025 209.61 270.025 214.703 275.075 215.487C280.081 216.264 283.156 212.353 283.156 207.651C283.156 202.949 279.789 199.423 274.739 200.207C270.679 200.837 270.025 205.3 269.688 207.651Z" stroke="#B7B7B7" stroke-width="2"/>
<path d="M186.527 161.854L234 161.854L264.638 126.874L287.533 126.874M287.533 126.874C287.869 128.833 287.869 133.927 292.92 134.71C297.926 135.487 301 131.576 301 126.874C301 122.173 297.633 118.647 292.583 119.43C288.523 120.06 287.869 124.523 287.533 126.874Z" stroke="#B7B7B7" stroke-width="2"/>
<path d="M186.528 178.593L209.422 178.593M209.422 178.593C209.759 180.552 209.759 185.646 214.809 186.429C219.815 187.206 222.89 183.295 222.89 178.593C222.89 173.891 219.523 170.365 214.473 171.149C210.413 171.779 209.759 176.242 209.422 178.593Z" stroke="#B7B7B7" stroke-width="2"/>
<path d="M97.6471 204.724L79.8028 204.73L71.7178 216.881L48.8232 216.888M48.8232 216.888C48.4861 214.929 48.485 209.836 43.4345 209.053C38.4284 208.278 35.3548 212.19 35.3558 216.892C35.3568 221.594 38.7244 225.119 43.7745 224.334C47.8344 223.703 48.487 219.239 48.8232 216.888Z" stroke="#B7B7B7" stroke-width="2"/>
<path d="M97.634 142.319L68.6791 142.327L37.3641 128.057L14.4695 128.064M14.4695 128.064C14.1324 126.105 14.1312 121.012 9.08072 120.229C4.07457 119.454 1.001 123.366 1.00209 128.068C1.00317 132.769 4.37083 136.295 9.42092 135.51C13.4808 134.879 14.1333 130.415 14.4695 128.064Z" stroke="#B7B7B7" stroke-width="2"/>
<path d="M97.6425 183.066L65.6572 183.066L52.8632 200.817L15.4912 200.813M15.4912 200.813C15.154 198.854 15.1529 193.761 10.1025 192.978C5.09634 192.203 2.02273 196.115 2.02375 200.817C2.02477 205.519 5.39238 209.044 10.4425 208.259C14.5024 207.628 15.155 203.164 15.4912 200.813Z" stroke="#B7B7B7" stroke-width="2"/>
<path d="M97.639 166.327L45.4565 166.334M45.4565 166.334C45.1194 164.375 45.1183 159.282 40.0678 158.499C35.0617 157.724 31.9881 161.636 31.9891 166.338C31.9901 171.04 35.3577 174.565 40.4078 173.78C44.4677 173.149 45.1203 168.685 45.4565 166.334Z" stroke="#B7B7B7" stroke-width="2"/>
<path d="M179.537 216.881L179.334 259.196L195.442 270.271L195.356 288.294M195.356 288.294C193.671 288.675 189.294 288.646 188.592 294.519C187.897 300.34 191.241 303.94 195.281 303.966C199.321 303.992 202.37 300.094 201.724 294.213C201.206 289.484 197.374 288.699 195.356 288.294Z" stroke="#B7B7B7" stroke-width="2"/>
<path d="M107.039 217.01L106.942 237.384L93.8488 249.053L93.7624 267.076M93.7624 267.076C92.0772 267.457 87.7004 267.428 86.9989 273.301C86.3035 279.122 89.6471 282.722 93.6872 282.748C97.7274 282.774 100.776 278.876 100.131 272.995C99.6124 268.266 95.7807 267.481 93.7624 267.076Z" stroke="#B7B7B7" stroke-width="2"/>
<path d="M167.246 216.142L167.16 234.165M167.16 234.165C165.474 234.545 161.098 234.517 160.396 240.39C159.701 246.211 163.044 249.81 167.084 249.837C171.125 249.863 174.173 245.965 173.528 240.083C173.01 235.355 169.178 234.569 167.16 234.165Z" stroke="#B7B7B7" stroke-width="2"/>
<path d="M148.462 216.142L148.306 248.661M148.306 248.661C146.62 249.042 142.244 249.014 141.542 254.886C140.847 260.708 144.19 264.307 148.23 264.333C152.271 264.36 155.319 260.461 154.674 254.58C154.156 249.852 150.324 249.066 148.306 248.661Z" stroke="#B7B7B7" stroke-width="2"/>
<path d="M116.657 294.851L116.743 267.552L129.836 255.882L129.934 235.509L123.026 227.152L123.026 216.181M116.657 294.851C114.972 295.232 110.595 295.203 109.893 301.076C109.198 306.897 112.541 310.497 116.582 310.523C120.622 310.549 123.671 306.651 123.025 300.77C122.507 296.041 118.675 295.256 116.657 294.851Z" stroke="#B7B7B7" stroke-width="2"/>
<path d="M227.853 274.477L227.939 256.454L227.94 230.594L211.442 209.045L186.527 209.045M227.853 274.477C226.168 274.857 221.791 274.829 221.089 280.702C220.394 286.523 223.738 290.122 227.778 290.149C231.818 290.175 234.867 286.277 234.222 280.395C233.703 275.667 229.871 274.881 227.853 274.477Z" stroke="#B7B7B7" stroke-width="2"/>
<path d="M106.396 125.198L106.396 106.281L82.1544 90.0581L61.9549 90.0581M61.9549 90.0581C61.6178 88.0993 61.6167 83.0058 56.5662 82.2237C51.5601 81.4484 48.4865 85.3604 48.4875 90.0621C48.4885 94.7638 51.8561 98.289 56.9062 97.5039C60.9661 96.8728 61.6187 92.4092 61.9549 90.0581Z" stroke="#B7B7B7" stroke-width="2"/>
</svg>
