<svg width="210" height="220" viewBox="0 0 210 220" fill="none" xmlns="http://www.w3.org/2000/svg">
<path d="M120.675 149.273C114.466 149.273 92.1151 151.134 61.6928 144.31C17.4039 134.375 -43.2332 111.428 49.8964 54.3499C71.6267 39.4514 139.922 22.7089 162.273 27.6719M157.927 141.207C192.074 133.142 210.966 113.289 208.838 98.3989C205.501 75.0602 182.905 82.8886 182.141 72.962C181.377 63.0354 202.629 53.7295 202.629 43.8029C202.629 33.8763 184.831 30.9811 180.278 29.5334" stroke="#B7B7B7" stroke-width="2"/>
<path d="M30.65 100.26C27.585 94.1351 29.4086 87.8521 36.2382 85.3706C37.946 84.7501 45.0546 83.5093 48.0348 88.4726C51.76 94.6767 50.1013 100.544 44.9305 103.362C41.205 105.393 33.247 105.451 30.65 100.26Z" stroke="#B7B7B7" stroke-width="2"/>
<path d="M65.6143 75.4292C62.5493 69.3039 64.3729 63.0209 71.2026 60.5394C72.9104 59.9189 80.019 58.6781 82.9991 63.6414C86.7243 69.8455 85.0657 75.7129 79.8948 78.5313C76.1694 80.5618 68.2114 80.6194 65.6143 75.4292Z" stroke="#B7B7B7" stroke-width="2"/>
<path d="M105.349 59.2985C102.284 53.1732 104.108 46.8902 110.937 44.4086C112.645 43.7881 119.754 42.5474 122.734 47.5107C126.459 53.7148 124.801 59.5822 119.63 62.4005C115.904 64.4311 107.946 64.4887 105.349 59.2985Z" stroke="#B7B7B7" stroke-width="2"/>
<path d="M180.142 3.3528C170.246 13.0142 148.257 42.8921 139.47 85.1122C136.696 103.771 136.564 131.539 158.23 93.3435C179.896 55.1476 181.865 17.4348 180.142 3.3528Z" stroke="#B7B7B7" stroke-width="2"/>
<path d="M140.898 80.3181C140.953 83.2786 142.315 89.7483 147.317 91.9432C152.32 94.1382 158.387 90.9277 160.795 89.0481" stroke="#B7B7B7" stroke-width="2"/>
<path d="M137.778 101.309C118.893 107.252 110.85 113.21 112.569 130.904C114.287 148.597 127.861 153.198 122.869 164.559C117.877 175.92 145.304 162.884 154.678 144.636C164.052 126.389 158.312 111.674 151.033 105.093" stroke="#B7B7B7" stroke-width="2"/>
<path d="M56.7266 176.571V220" stroke="#B7B7B7" stroke-width="5"/>
<path d="M66.6602 176.571V220" stroke="#B7B7B7"/>
<path d="M70.3853 176.571V220" stroke="#B7B7B7" stroke-width="2"/>
<path d="M90.2529 176.571V220" stroke="#B7B7B7" stroke-width="5"/>
<path d="M100.187 176.571V220" stroke="#B7B7B7"/>
<path d="M103.912 176.571V220" stroke="#B7B7B7" stroke-width="2"/>
<path d="M79.0771 176.571V220" stroke="#B7B7B7" stroke-width="7"/>
<path d="M134.955 176.571V220" stroke="#B7B7B7" stroke-width="4"/>
<path d="M113.846 176.571V220" stroke="#B7B7B7"/>
<path d="M85.2861 176.571V220" stroke="#B7B7B7"/>
<path d="M118.191 176.571V220" stroke="#B7B7B7"/>
<path d="M127.504 176.571V220" stroke="#B7B7B7" stroke-width="0.5"/>
<path d="M141.164 176.571V220" stroke="#B7B7B7" stroke-width="0.5"/>
<path d="M149.855 176.571V220" stroke="#B7B7B7" stroke-width="12"/>
<path d="M96.4614 176.571V220" stroke="#B7B7B7"/>
<path d="M108.879 176.571V220" stroke="#B7B7B7" stroke-width="5"/>
<path d="M120.054 176.571V220" stroke="#B7B7B7" stroke-width="0.25"/>
<path d="M122.538 176.571V220" stroke="#B7B7B7" stroke-width="2"/>
<path d="M125.021 176.571V220" stroke="#B7B7B7"/>
<path d="M158.548 176.571V220" stroke="#B7B7B7"/>
<path d="M167.861 176.571V220" stroke="#B7B7B7" stroke-width="0.5"/>
<path d="M162.273 176.571V220" stroke="#B7B7B7" stroke-width="0.5"/>
<path d="M169.724 176.571V220" stroke="#B7B7B7" stroke-width="2"/>
<path d="M165.999 176.571V220" stroke="#B7B7B7"/>
<path d="M161.031 176.571V220" stroke="#B7B7B7" stroke-width="0.5"/>
<path d="M163.515 176.571V220" stroke="#B7B7B7" stroke-width="0.5"/>
<path d="M60.4517 176.571V220" stroke="#B7B7B7" stroke-width="0.5"/>
<path d="M62.9351 176.571V220" stroke="#B7B7B7" stroke-width="0.25"/>
<path d="M97.7031 176.571V220" stroke="#B7B7B7" stroke-width="0.25"/>
<path d="M98.9448 176.571V220" stroke="#B7B7B7" stroke-width="0.25"/>
</svg>
