<svg width="300" height="349" viewBox="0 0 300 349" fill="none" xmlns="http://www.w3.org/2000/svg">
<path d="M165.675 214.273C159.466 214.273 137.115 216.134 106.693 209.31C62.4039 199.375 1.76676 176.428 94.8964 119.35C116.627 104.451 184.922 87.7089 207.273 92.6719M202.927 206.207C237.074 198.142 255.966 178.289 253.838 163.399C250.501 140.06 227.905 147.889 227.141 137.962C226.377 128.035 247.629 118.729 247.629 108.803C247.629 98.8763 229.831 95.9811 225.278 94.5334" stroke="#B7B7B7" stroke-width="2"/>
<path d="M75.65 165.26C72.585 159.135 74.4086 152.852 81.2382 150.371C82.946 149.75 90.0546 148.509 93.0348 153.473C96.76 159.677 95.1013 165.544 89.9305 168.362C86.205 170.393 78.247 170.451 75.65 165.26Z" stroke="#B7B7B7" stroke-width="2"/>
<path d="M110.614 140.429C107.549 134.304 109.373 128.021 116.203 125.539C117.91 124.919 125.019 123.678 127.999 128.641C131.724 134.846 130.066 140.713 124.895 143.531C121.169 145.562 113.211 145.619 110.614 140.429Z" stroke="#B7B7B7" stroke-width="2"/>
<path d="M150.349 124.298C147.284 118.173 149.108 111.89 155.937 109.409C157.645 108.788 164.754 107.547 167.734 112.511C171.459 118.715 169.801 124.582 164.63 127.401C160.904 129.431 152.946 129.489 150.349 124.298Z" stroke="#B7B7B7" stroke-width="2"/>
<path d="M225.142 68.3528C215.246 78.0142 193.257 107.892 184.47 150.112C181.696 168.771 181.564 196.539 203.23 158.343C224.896 120.148 226.865 82.4348 225.142 68.3528Z" stroke="#B7B7B7" stroke-width="2"/>
<path d="M185.898 145.318C185.953 148.279 187.315 154.748 192.317 156.943C197.32 159.138 203.387 155.928 205.795 154.048" stroke="#B7B7B7" stroke-width="2"/>
<path d="M182.778 166.309C163.893 172.252 155.85 178.21 157.569 195.904C159.287 213.597 172.861 218.198 167.869 229.559C162.877 240.92 190.304 227.884 199.678 209.636C209.052 191.389 203.312 176.674 196.033 170.093" stroke="#B7B7B7" stroke-width="2"/>
<path d="M101.727 241.571V285" stroke="#B7B7B7" stroke-width="5"/>
<path d="M111.66 241.571V285" stroke="#B7B7B7"/>
<path d="M115.385 241.571V285" stroke="#B7B7B7" stroke-width="2"/>
<path d="M135.253 241.571V285" stroke="#B7B7B7" stroke-width="5"/>
<path d="M145.187 241.571V285" stroke="#B7B7B7"/>
<path d="M148.912 241.571V285" stroke="#B7B7B7" stroke-width="2"/>
<path d="M124.077 241.571V285" stroke="#B7B7B7" stroke-width="7"/>
<path d="M179.955 241.571V285" stroke="#B7B7B7" stroke-width="4"/>
<path d="M158.846 241.571V285" stroke="#B7B7B7"/>
<path d="M130.286 241.571V285" stroke="#B7B7B7"/>
<path d="M163.191 241.571V285" stroke="#B7B7B7"/>
<path d="M172.504 241.571V285" stroke="#B7B7B7" stroke-width="0.5"/>
<path d="M186.164 241.571V285" stroke="#B7B7B7" stroke-width="0.5"/>
<path d="M194.855 241.571V285" stroke="#B7B7B7" stroke-width="12"/>
<path d="M141.461 241.571V285" stroke="#B7B7B7"/>
<path d="M153.879 241.571V285" stroke="#B7B7B7" stroke-width="5"/>
<path d="M165.054 241.571V285" stroke="#B7B7B7" stroke-width="0.25"/>
<path d="M167.538 241.571V285" stroke="#B7B7B7" stroke-width="2"/>
<path d="M170.021 241.571V285" stroke="#B7B7B7"/>
<path d="M203.548 241.571V285" stroke="#B7B7B7"/>
<path d="M212.861 241.571V285" stroke="#B7B7B7" stroke-width="0.5"/>
<path d="M207.273 241.571V285" stroke="#B7B7B7" stroke-width="0.5"/>
<path d="M214.724 241.571V285" stroke="#B7B7B7" stroke-width="2"/>
<path d="M210.999 241.571V285" stroke="#B7B7B7"/>
<path d="M206.031 241.571V285" stroke="#B7B7B7" stroke-width="0.5"/>
<path d="M208.515 241.571V285" stroke="#B7B7B7" stroke-width="0.5"/>
<path d="M105.452 241.571V285" stroke="#B7B7B7" stroke-width="0.5"/>
<path d="M107.935 241.571V285" stroke="#B7B7B7" stroke-width="0.25"/>
<path d="M142.703 241.571V285" stroke="#B7B7B7" stroke-width="0.25"/>
<path d="M143.945 241.571V285" stroke="#B7B7B7" stroke-width="0.25"/>
</svg>
