<svg width="1431" height="1653" viewBox="0 0 1431 1653" fill="none" xmlns="http://www.w3.org/2000/svg">
<path fill-rule="evenodd" clip-rule="evenodd" d="M0 0H1431V1653H0V0ZM925.5 1325.11C945.317 1351.67 939.851 1389.27 913.293 1409.08C886.734 1428.9 849.139 1423.44 829.323 1396.88L294.687 680.358C274.87 653.799 280.336 616.205 306.894 596.388C333.453 576.571 371.047 582.036 390.864 608.595L925.5 1325.11ZM748.484 1412.28C772.83 1394.11 777.84 1359.65 759.674 1335.31L247.166 648.441C229 624.095 194.538 619.086 170.193 637.251C145.848 655.416 140.838 689.878 159.003 714.224L671.512 1401.09C689.677 1425.43 724.139 1430.44 748.484 1412.28ZM953.298 1163.38C969.812 1185.52 965.258 1216.84 943.126 1233.36C920.994 1249.87 889.665 1245.32 873.151 1223.19L354.662 528.305C338.148 506.173 342.702 474.844 364.835 458.33C386.967 441.816 418.296 446.371 434.81 468.503L953.298 1163.38ZM1022.71 1157.75C1040.42 1144.54 1044.06 1119.48 1030.85 1101.77L624.193 556.77C610.982 539.064 585.918 535.421 568.213 548.632C550.507 561.843 546.863 586.906 560.075 604.612L966.732 1149.62C979.944 1167.32 1005.01 1170.97 1022.71 1157.75ZM538.472 1254.56C553.335 1274.48 549.236 1302.68 529.317 1317.54C509.398 1332.4 481.202 1328.3 466.34 1308.38L65.662 771.394C50.7994 751.475 54.8983 723.279 74.8172 708.416C94.7362 693.553 122.932 697.652 137.795 717.571L538.472 1254.56ZM553.849 1507.6C567.128 1497.69 569.861 1478.89 559.952 1465.61L79.7372 822.029C69.8288 808.749 51.0314 806.017 37.7521 815.925C24.4728 825.833 21.7402 844.631 31.6486 857.91L511.864 1501.5C521.772 1514.78 540.569 1517.51 553.849 1507.6ZM551.056 1585.79C557.662 1594.65 555.84 1607.18 546.987 1613.78C538.134 1620.39 525.603 1618.57 518.997 1609.71L188.886 1167.3C182.281 1158.45 184.103 1145.91 192.955 1139.31C201.808 1132.7 214.34 1134.52 220.946 1143.38L551.056 1585.79ZM174.417 1114.46C183.27 1107.86 185.091 1095.33 178.486 1086.47L162.937 1065.63C156.331 1056.78 143.8 1054.96 134.947 1061.57C126.094 1068.17 124.272 1080.7 130.878 1089.56L146.427 1110.39C153.032 1119.25 165.564 1121.07 174.417 1114.46ZM120.477 1008.73C127.083 1017.58 125.261 1030.11 116.408 1036.72C107.555 1043.33 95.0237 1041.5 88.4181 1032.65C81.8125 1023.8 83.6342 1011.27 92.4871 1004.66C101.34 998.055 113.872 999.877 120.477 1008.73ZM1059.78 1050.24C1075.27 1038.69 1078.46 1016.75 1066.9 1001.26L592.664 365.691C581.104 350.199 559.174 347.011 543.681 358.571C528.189 370.131 525 392.061 536.56 407.553L1010.8 1043.12C1022.35 1058.62 1044.29 1061.8 1059.78 1050.24Z" fill="black"/>
</svg>
